<svg xmlns="http://www.w3.org/2000/svg" viewBox="0 0 400 300" role="img">
  <rect width="400" height="300" fill="#FFFDFA"/>
  <circle cx="330" cy="62" r="96" fill="#C6D1A5" opacity="0.35"/>
  <circle cx="64" cy="250" r="66" fill="#F5D0CA" opacity="0.30"/>
  <g fill="none" stroke="#8E4553" stroke-width="2.4" stroke-linecap="round" stroke-linejoin="round">
    <path d="M110 120 q45 -18 90 0 q45 18 90 0" stroke-width="1.8" opacity="0.90"/>
    <path d="M110 146 q45 -18 90 0 q45 18 90 0" stroke-width="1.8" opacity="0.78"/>
    <path d="M110 172 q45 -18 90 0 q45 18 90 0" stroke-width="1.8" opacity="0.66"/>
    <path d="M110 198 q45 -18 90 0 q45 18 90 0" stroke-width="1.8" opacity="0.54"/>
    <path d="M110 224 q45 -18 90 0 q45 18 90 0" stroke-width="1.8" opacity="0.42"/>
    <path d="M116 116 V236" stroke-width="1.2" opacity="0.35"/>
    <path d="M150 116 V236" stroke-width="1.2" opacity="0.35"/>
    <path d="M184 116 V236" stroke-width="1.2" opacity="0.35"/>
    <path d="M218 116 V236" stroke-width="1.2" opacity="0.35"/>
    <path d="M252 116 V236" stroke-width="1.2" opacity="0.35"/>
    <path d="M286 116 V236" stroke-width="1.2" opacity="0.35"/>
    <g transform="translate(250 56) rotate(30)">
      <path d="M0 0 H62 V22 H0 Z"/>
      <path d="M62 6 H84 V16 H62"/>
      <path d="M84 11 H108"/>
      <path d="M-4 4 V18 M-18 11 H-4"/>
      <path d="M14 0 V22 M28 0 V22 M42 0 V22" stroke-width="1.4" opacity="0.6"/>
    </g>
  </g>
</svg>
